<svg width="104" height="38" viewBox="0 0 104 38" fill="none" xmlns="http://www.w3.org/2000/svg">
<path d="M2.88413 30V8.88H11.0441C12.1535 8.88 13.1668 8.976 14.0841 9.168C15.0228 9.33867 15.8441 9.59467 16.5481 9.936C17.2735 10.2773 17.8815 10.704 18.3721 11.216C18.8628 11.7067 19.2361 12.2827 19.4921 12.944C19.7481 13.584 19.8761 14.2987 19.8761 15.088C19.8761 15.8347 19.7588 16.5173 19.5241 17.136C19.2895 17.7333 18.9375 18.256 18.4681 18.704C18.0201 19.152 17.4441 19.5253 16.7401 19.824C16.0575 20.1013 15.2575 20.304 14.3401 20.432V20.848C15.3215 20.976 16.1215 21.2213 16.7401 21.584C17.3801 21.9467 17.8921 22.448 18.2761 23.088C18.6601 23.728 18.9908 24.5493 19.2681 25.552L20.5481 30H16.1001L15.1081 25.904C14.9161 25.0507 14.6175 24.368 14.2121 23.856C13.8281 23.344 13.3375 22.9813 12.7401 22.768C12.1428 22.5547 11.4175 22.448 10.5641 22.448H6.91613V30H2.88413ZM6.91613 19.344H10.7561C12.3561 19.344 13.5721 19.0453 14.4041 18.448C15.2575 17.8507 15.6841 16.9333 15.6841 15.696C15.6841 14.4587 15.2788 13.5413 14.4681 12.944C13.6788 12.3467 12.4628 12.048 10.8201 12.048H6.91613V19.344ZM22.7864 30V19.6V7.28H26.8504V12.496C26.8504 12.944 26.829 13.4027 26.7864 13.872C26.765 14.3413 26.7224 14.8213 26.6584 15.312C26.5944 15.8027 26.5197 16.2933 26.4344 16.784C26.3704 17.2747 26.2957 17.7653 26.2104 18.256H26.8824C27.181 17.104 27.565 16.1333 28.0344 15.344C28.5037 14.5333 29.101 13.9147 29.8264 13.488C30.573 13.0613 31.4797 12.848 32.5464 12.848C34.4877 12.848 35.9384 13.5307 36.8984 14.896C37.8584 16.24 38.3384 18.288 38.3384 21.04V30H34.2744V21.616C34.2744 19.7813 33.997 18.4267 33.4424 17.552C32.909 16.6773 32.0984 16.24 31.0104 16.24C30.1144 16.24 29.3677 16.5173 28.7704 17.072C28.173 17.6053 27.7144 18.32 27.3944 19.216C27.0744 20.112 26.8824 21.1253 26.8184 22.256V30H22.7864ZM47.4019 35.728C46.5485 35.728 45.6845 35.6427 44.8099 35.472C43.9352 35.3013 43.1139 35.0347 42.3459 34.672C41.5992 34.3307 40.9699 33.8827 40.4579 33.328L41.8339 30C42.4525 30.704 43.2525 31.2373 44.2339 31.6C45.2152 31.9627 46.2072 32.144 47.2099 32.144C48.3832 32.144 49.3539 31.8987 50.1219 31.408C50.8899 30.9387 51.4765 30.2027 51.8819 29.2C52.2872 28.1973 52.5112 26.9493 52.5539 25.456L52.7779 22.416H52.1059C51.8925 23.8667 51.5405 25.0507 51.0499 25.968C50.5592 26.864 49.9405 27.5253 49.1939 27.952C48.4685 28.3573 47.6152 28.56 46.6339 28.56C45.4179 28.56 44.3939 28.2507 43.5619 27.632C42.7299 27.0133 42.1005 26.096 41.6739 24.88C41.2685 23.664 41.0659 22.16 41.0659 20.368V13.264H45.1299V19.44C45.1299 21.4453 45.3752 22.9067 45.8659 23.824C46.3565 24.72 47.1032 25.168 48.1059 25.168C48.6392 25.168 49.1299 25.0293 49.5779 24.752C50.0259 24.4533 50.3992 24.0373 50.6979 23.504C51.0179 22.9493 51.2632 22.2667 51.4339 21.456C51.6259 20.6453 51.7325 19.7173 51.7539 18.672V13.264H55.8179V25.616C55.8179 26.96 55.7005 28.176 55.4659 29.264C55.2525 30.3307 54.9219 31.2587 54.4739 32.048C54.0259 32.8587 53.4605 33.5413 52.7779 34.096C52.1165 34.6507 51.3379 35.056 50.4419 35.312C49.5459 35.5893 48.5325 35.728 47.4019 35.728ZM59.0076 30V19.408V13.264H62.3036L62.2076 18.384H62.7836C63.0823 17.1467 63.4663 16.1227 63.9356 15.312C64.4263 14.48 65.0236 13.8613 65.7276 13.456C66.4316 13.0507 67.2423 12.848 68.1596 12.848C69.1836 12.848 70.0263 13.0827 70.6876 13.552C71.349 14.0213 71.8503 14.672 72.1916 15.504C72.5543 16.3147 72.7783 17.264 72.8636 18.352H73.3756C73.653 17.1147 74.0476 16.0907 74.5596 15.28C75.093 14.4693 75.733 13.8613 76.4796 13.456C77.2476 13.0507 78.0903 12.848 79.0076 12.848C79.9036 12.848 80.693 13.0293 81.3756 13.392C82.0583 13.7547 82.6236 14.288 83.0716 14.992C83.541 15.6747 83.8823 16.5387 84.0956 17.584C84.3303 18.6293 84.4476 19.8347 84.4476 21.2V30H80.3836V21.712C80.3836 20.5173 80.277 19.5253 80.0636 18.736C79.8716 17.9467 79.5623 17.36 79.1356 16.976C78.7303 16.5707 78.197 16.368 77.5356 16.368C76.789 16.368 76.1383 16.6133 75.5836 17.104C75.029 17.5947 74.5916 18.288 74.2716 19.184C73.9516 20.0587 73.7596 21.0613 73.6956 22.192V30H69.7276V21.904C69.7276 20.6667 69.621 19.6427 69.4076 18.832C69.1943 18 68.8743 17.3813 68.4476 16.976C68.021 16.5707 67.477 16.368 66.8156 16.368C66.0476 16.368 65.3863 16.624 64.8316 17.136C64.2983 17.648 63.8716 18.352 63.5516 19.248C63.253 20.144 63.0823 21.1467 63.0396 22.256V30H59.0076ZM94.9984 30.416C93.6544 30.416 92.449 30.224 91.3824 29.84C90.337 29.456 89.4517 28.9013 88.7264 28.176C88.001 27.4293 87.4464 26.5333 87.0624 25.488C86.6784 24.4427 86.4864 23.2587 86.4864 21.936C86.4864 20.6133 86.6677 19.3973 87.0304 18.288C87.4144 17.1787 87.9584 16.2187 88.6624 15.408C89.3664 14.5973 90.2197 13.968 91.2224 13.52C92.2464 13.072 93.409 12.848 94.7104 12.848C95.9264 12.848 97.0144 13.0507 97.9744 13.456C98.9344 13.8613 99.745 14.4693 100.406 15.28C101.068 16.0693 101.558 17.0613 101.878 18.256C102.198 19.4293 102.305 20.7947 102.198 22.352L89.1104 22.448V20.112L99.8624 20.016L98.4544 21.328C98.5824 20.112 98.4864 19.12 98.1664 18.352C97.8464 17.5627 97.3877 16.9867 96.7904 16.624C96.193 16.24 95.5104 16.048 94.7424 16.048C93.8677 16.048 93.0997 16.2827 92.4384 16.752C91.777 17.2 91.265 17.8613 90.9024 18.736C90.561 19.5893 90.3904 20.6347 90.3904 21.872C90.3904 23.728 90.7957 25.1147 91.6064 26.032C92.4384 26.9493 93.569 27.408 94.9984 27.408C95.6384 27.408 96.1717 27.3333 96.5984 27.184C97.0464 27.0133 97.4197 26.8 97.7184 26.544C98.017 26.2667 98.2517 25.9573 98.4224 25.616C98.6144 25.2747 98.7637 24.912 98.8704 24.528L102.39 25.328C102.22 26.1173 101.942 26.8213 101.558 27.44C101.174 28.0587 100.673 28.592 100.054 29.04C99.457 29.488 98.7424 29.8293 97.9104 30.064C97.0784 30.2987 96.1077 30.416 94.9984 30.416Z" fill="black"/>
</svg>
